# xmcd CD database file
#
# Track frame offsets:
#	150
#	15232
#	43222
#	58771
#	77054
#	92086
#	110001
#	128859
#	154935
#	165067
#	189689
#	205232
#	227994
#	244661
#	262529
#	271801
#
# Disc length: 3823 seconds
#
# Revision: 2
# Processed by: cddbd v1.5.2PL0 Copyright (c) Steve Scherf et al.
# Submitted via: CDex 1.70beta2
#
DISCID=cb0eed10
DTITLE=Various Artist - 조선지심 - The Heart of Coree in cool jazz
DYEAR=2002
DGENRE=Jazz
TTITLE0=Blue Coree Arirang
TTITLE1=Brier Flower - 찔레꽃
TTITLE2=Boatmen's Song - 뱃노래
TTITLE3=Spring of Hometown - 고향의 봄
TTITLE4=Jindo Arirang
TTITLE5=Archaic Site of Imperial Palace - 황성옛터
TTITLE6=Dondol-nari - 돈놀날이
TTITLE7=Seya-seya
TTITLE8=Sabal-ga
TTITLE9=Sungju-puri
TTITLE10=Farmer's Ballad - 농부가
TTITLE11=Haero-ga - 해로가
TTITLE12=Weeping Willow - 능수버들
TTITLE13=Sangju Rice Seeding - 상주모심기
TTITLE14=Ong-hae-ya
TTITLE15=Arirang
EXTD=YEAR: 2002
EXTT0=
EXTT1=
EXTT2=
EXTT3=
EXTT4=
EXTT5=
EXTT6=
EXTT7=
EXTT8=
EXTT9=
EXTT10=
EXTT11=
EXTT12=
EXTT13=
EXTT14=
EXTT15=
PLAYORDER=
